Coordinates
version=1
nRows=5
nColumns=63
inDegrees=yes

Units are S.I. units (second, meters, Newtons, ...)
If the header above contains a line with 'inDegrees', this indicates whether rotational values are in degrees (yes) or radians (no).

endheader
time	pelvis_tilt	pelvis_list	pelvis_rotation	pelvis_tx	pelvis_ty	pelvis_tz	hip_flexion_r	hip_adduction_r	hip_rotation_r	knee_angle_r	knee_angle_r_beta	ankle_angle_r	subtalar_angle_r	mtp_angle_r	hip_flexion_l	hip_adduction_l	hip_rotation_l	knee_angle_l	knee_angle_l_beta	ankle_angle_l	subtalar_angle_l	mtp_angle_l	L5_S1_Flex_Ext	L5_S1_Lat_Bending	L5_S1_axial_rotation	L4_L5_Flex_Ext	L4_L5_Lat_Bending	L4_L5_axial_rotation	L3_L4_Flex_Ext	L3_L4_Lat_Bending	L3_L4_axial_rotation	L2_L3_Flex_Ext	L2_L3_Lat_Bending	L2_L3_axial_rotation	L1_L2_Flex_Ext	L1_L2_Lat_Bending	L1_L2_axial_rotation	L1_T12_Flex_Ext	L1_T12_Lat_Bending	L1_T12_axial_rotation	Abs_r3	Abs_r2	Abs_r1	Abs_t1	Abs_t2	neck_flexion	neck_bending	neck_rotation	arm_flex_r	arm_add_r	arm_rot_r	elbow_flex_r	pro_sup_r	wrist_flex_r	wrist_dev_r	arm_flex_l	arm_add_l	arm_rot_l	elbow_flex_l	pro_sup_l	wrist_flex_l	wrist_dev_l
      0.00000000	     -2.97681623	     -8.52896625	     97.08927138	      0.26650574	      0.39753675	      0.89063226	      8.76857285	     -4.42141255	    -10.55140883	      9.97083157	      0.17402384	     26.21800846	      6.14380022	      0.00000000	      8.22054816	      4.30318333	      1.91698166	      4.45540479	      0.07776148	     20.42354730	      6.98699062	      0.00000000	      0.31610958	     -0.45878058	      1.25969450	      0.58704711	     -0.61017817	      1.33842541	      0.51933644	     -1.11547910	      1.33842541	      0.36128164	     -1.11547910	      1.10223269	      0.29353936	     -0.93554536	      1.02350178	      0.18062502	     -0.71065112	      0.94477088	      2.25793915	     -5.18981767	      7.00604292	      0.00000000	      0.00000000	     26.07366759	     -0.12336570	      2.74800181	     17.69402265	     -9.04813869	     52.06908969	     45.87956115	     66.99355255	      5.50286042	     12.27820967	     22.20326345	     -9.44454508	     63.70848895	     44.64395546	     70.23086911	     -1.94635137	      8.68459105
      0.01694915	     -3.14484266	     -8.60883191	     96.92126910	      0.26712505	      0.39780170	      0.88997251	      8.41818311	     -4.46934902	     -8.03077551	      9.20111376	      0.16058973	     25.93002124	      3.47882823	      0.00000000	      8.21909438	      4.45906655	      1.78338599	      4.16654680	      0.07271996	     21.30429874	      7.53867709	      0.00000000	      0.31724406	     -0.48229526	      1.21410001	      0.58915395	     -0.64145270	      1.28998126	      0.52120027	     -1.17265270	      1.28998126	      0.36257824	     -1.17265270	      1.06233751	      0.29459284	     -0.98349650	      0.98645626	      0.18127326	     -0.74707536	      0.91057500	      2.26604263	     -5.45582045	      6.75246001	      0.00000000	      0.00000000	     26.55154975	      0.10548667	      2.97061278	     17.98122753	     -8.85882504	     53.97148194	     45.23677969	     64.52530095	      5.88496723	     12.67807423	     21.67971712	     -9.63749129	     62.19277392	     45.48455703	     84.70409076	     -0.13454119	     11.52173585
      0.03389831	     -3.24683339	     -8.59502493	     97.00649773	      0.26728273	      0.39811621	      0.88963044	      7.91543207	     -4.46174522	     -5.80090246	      8.32935845	      0.14537473	     25.40716989	      0.85593776	      0.00000000	      8.25813895	      4.56040929	      1.41887369	      4.16610129	      0.07271218	     22.09896954	      8.46078832	      0.00000000	      0.31601867	     -0.49689419	      1.17949927	      0.58687826	     -0.66086927	      1.25321797	      0.51918707	     -1.20814853	      1.25321797	      0.36117773	     -1.20814853	      1.03206186	      0.29345493	     -1.01326663	      0.95834315	      0.18057307	     -0.76968910	      0.88462445	      2.25728973	     -5.62096643	      6.56002107	      0.00000000	      0.00000000	     26.67925736	      0.25206439	      2.79704230	     17.94240738	     -8.91614042	     55.48127083	     44.83628094	     59.87229147	      5.91917046	     12.99309784	     22.31090276	     -9.80460336	     64.65253836	     45.79295596	     87.57802487	      0.65062828	     13.29517182
      0.05084746	     -3.26492045	     -8.56039293	     97.15997323	      0.26721032	      0.39829754	      0.88892304	      7.38780560	     -4.49457247	     -5.46047477	      7.50158119	      0.13092729	     25.15519971	      0.74337822	      0.00000000	      8.26253458	      4.59001070	      1.62504745	      4.22626875	      0.07376230	     22.75347532	      8.70406178	      0.00000000	      0.33010993	     -0.49745029	      1.14445793	      0.61304715	     -0.66160889	      1.21598655	      0.54233761	     -1.20950065	      1.21598655	      0.37728264	     -1.20950065	      1.00140069	      0.30654008	     -1.01440064	      0.92987207	      0.18862481	     -0.77055051	      0.85834345	      2.35794223	     -5.62725722	      6.36513167	      0.00000000	      0.00000000	     26.52720186	      0.36507753	      2.81089449	     17.28833304	     -8.90742207	     55.33175184	     44.59444267	     58.58554422	      6.26672293	     13.17239765	     22.77506014	     -9.92210142	     67.06853758	     46.06917167	     88.59079714	      1.37567688	     14.20393874
      0.06779661	     -3.30305725	     -8.34976508	     97.48311429	      0.26682260	      0.39865963	      0.88874056	      6.79682739	     -4.39998650	     -3.17269784	      6.87284807	      0.11995383	     24.35248485	     -2.63383490	      0.00000000	      8.18761941	      4.59813095	      0.81270217	      4.48614961	      0.07829808	     23.49509075	     10.39442288	      0.00000000	      0.31374636	     -0.50681012	      1.14820832	      0.58265837	     -0.67405747	      1.21997134	      0.51545390	     -1.23225814	      1.21997134	      0.35858072	     -1.23225814	      1.00468228	      0.29134487	     -1.03348721	      0.93291926	      0.17927467	     -0.78504888	      0.86115624	      2.24105889	     -5.73313749	      6.38599019	      0.00000000	      0.00000000	     26.34657458	      0.25033377	      1.53182022	     16.86770121	     -9.30311590	     56.25318844	     44.69595979	     51.24493078	      5.58814662	     13.82420613	     24.04604012	     -9.63129596	     71.22724194	     45.79487495	     88.66956684	      1.55796085	     14.88848043
